<mxfile host="app.diagrams.net" modified="2024-06-14T23:31:22.856Z" agent="Mozilla/5.0 (Windows NT 10.0; Win64; x64) AppleWebKit/537.36 (KHTML, like Gecko) Chrome/123.0.0.0 Safari/537.36" etag="fbNIPPfhhnBc248nPH_Y" version="24.5.4" type="github">
  <diagram name="PÃ¡gina-1" id="swSafQ7TBIi7PZWA_J-4">
    <mxGraphModel dx="1434" dy="772" grid="1" gridSize="10" guides="1" tooltips="1" connect="1" arrows="1" fold="1" page="1" pageScale="1" pageWidth="827" pageHeight="1169" math="0" shadow="0">
      <root>
        <mxCell id="0" />
        <mxCell id="1" parent="0" />
        <mxCell id="5m_romynTTO0MCNkoWzZ-2" value="" style="html=1;verticalAlign=bottom;startArrow=oval;startFill=1;endArrow=block;startSize=8;curved=0;rounded=0;" edge="1" parent="1">
          <mxGeometry width="60" relative="1" as="geometry">
            <mxPoint x="360" y="140" as="sourcePoint" />
            <mxPoint x="360" y="220" as="targetPoint" />
          </mxGeometry>
        </mxCell>
        <mxCell id="5m_romynTTO0MCNkoWzZ-3" value="login" style="rounded=1;whiteSpace=wrap;html=1;" vertex="1" parent="1">
          <mxGeometry x="320" y="220" width="80" height="40" as="geometry" />
        </mxCell>
        <mxCell id="5m_romynTTO0MCNkoWzZ-4" value="" style="endArrow=classic;html=1;rounded=0;" edge="1" parent="1">
          <mxGeometry width="50" height="50" relative="1" as="geometry">
            <mxPoint x="360" y="260" as="sourcePoint" />
            <mxPoint x="360" y="340" as="targetPoint" />
          </mxGeometry>
        </mxCell>
        <mxCell id="5m_romynTTO0MCNkoWzZ-6" value="" style="endArrow=classic;html=1;rounded=0;" edge="1" parent="1">
          <mxGeometry width="50" height="50" relative="1" as="geometry">
            <mxPoint x="357.5" y="499" as="sourcePoint" />
            <mxPoint x="357.5" y="579" as="targetPoint" />
          </mxGeometry>
        </mxCell>
        <mxCell id="5m_romynTTO0MCNkoWzZ-5" value="painel_psicologo" style="rounded=1;whiteSpace=wrap;html=1;" vertex="1" parent="1">
          <mxGeometry x="315" y="460" width="90" height="50" as="geometry" />
        </mxCell>
        <mxCell id="5m_romynTTO0MCNkoWzZ-7" value="" style="ellipse;html=1;shape=endState;fillColor=#000000;strokeColor=#ff0000;" vertex="1" parent="1">
          <mxGeometry x="343" y="579" width="30" height="30" as="geometry" />
        </mxCell>
        <mxCell id="5m_romynTTO0MCNkoWzZ-8" value="" style="endArrow=classic;html=1;rounded=0;" edge="1" parent="1">
          <mxGeometry width="50" height="50" relative="1" as="geometry">
            <mxPoint x="359.5" y="380" as="sourcePoint" />
            <mxPoint x="359.5" y="460" as="targetPoint" />
          </mxGeometry>
        </mxCell>
        <mxCell id="5m_romynTTO0MCNkoWzZ-9" value="tela de inicio" style="rounded=1;whiteSpace=wrap;html=1;" vertex="1" parent="1">
          <mxGeometry x="320" y="340" width="80" height="40" as="geometry" />
        </mxCell>
      </root>
    </mxGraphModel>
  </diagram>
</mxfile>
